<?xml version="1.0" standalone="no"?>
<!DOCTYPE svg PUBLIC "-//W3C//DTD SVG 20010904//EN"
 "http://www.w3.org/TR/2001/REC-SVG-20010904/DTD/svg10.dtd">
<svg version="1.0" xmlns="http://www.w3.org/2000/svg"
 width="766.000000pt" height="490.000000pt" viewBox="0 0 766.000000 490.000000"
 preserveAspectRatio="xMidYMid meet" >

<g transform="translate(0.000000,490.000000) scale(0.100000,-0.100000)"
fill="rgba(170, 55, 55, 0.808)" stroke="none">
<path d="M3377 4463 c-15 -4 -16 -7 -6 -19 10 -12 14 -12 20 -2 6 9 9 7 10 -7
l0 -20 9 20 c6 14 9 15 9 5 1 -26 -19 -39 -48 -31 -34 10 -72 7 -96 -6 -17
-10 -15 -14 31 -43 27 -17 61 -34 76 -37 25 -5 19 -10 -60 -49 -89 -45 -222
-137 -222 -153 0 -10 122 -63 185 -80 69 -19 148 -14 186 12 40 26 69 79 69
125 0 34 9 39 41 22 24 -13 26 -77 4 -141 l-16 -45 -80 -12 c-98 -14 -184 -50
-192 -81 -5 -20 -4 -20 24 4 34 28 117 55 163 54 26 -1 19 -7 -53 -41 -151
-72 -196 -63 -185 37 10 80 -23 93 -123 49 -33 -14 -36 -17 -18 -24 13 -5 24
-2 33 9 11 14 12 12 10 -14 -2 -21 -9 -31 -23 -32 -11 -2 -33 -4 -50 -6 -16
-2 -41 -9 -55 -17 l-25 -13 20 23 c15 18 9 16 -27 -10 -26 -18 -45 -36 -43
-41 11 -16 102 -39 161 -39 52 0 68 4 91 24 28 24 29 24 41 5 7 -10 23 -19 36
-19 24 0 36 -16 36 -51 0 -21 -73 -79 -100 -79 -24 0 -44 26 -45 57 0 32 -24
48 -56 40 -37 -10 -52 -23 -44 -38 6 -9 10 -8 16 7 7 16 8 15 8 -7 1 -22 -3
-26 -25 -26 -15 0 -21 3 -14 7 8 5 7 9 -6 14 -9 4 -22 2 -28 -4 -7 -7 -5 -10
4 -10 13 0 13 -2 0 -10 -20 -13 -33 -12 -24 1 4 7 -7 1 -25 -12 -17 -12 -31
-26 -31 -30 0 -13 63 -29 117 -29 44 0 58 5 78 25 l25 24 26 -26 26 -25 -30
-37 c-35 -43 -75 -50 -80 -13 -4 27 -21 28 -69 2 -21 -11 -31 -20 -22 -20 8 0
20 5 27 12 9 9 12 8 12 -5 0 -9 -3 -16 -7 -16 -22 4 -55 -2 -50 -8 11 -10 61
-10 68 0 4 5 9 4 13 -2 9 -13 -34 -32 -49 -22 -5 4 -20 6 -32 5 -16 -1 -20 3
-15 15 5 14 4 14 -12 2 -16 -14 -16 -15 0 -24 10 -6 38 -11 62 -11 35 -1 47 4
62 24 11 14 20 19 20 12 0 -32 46 -4 85 50 22 31 59 71 82 87 37 26 42 28 47
13 2 -9 19 -87 36 -172 18 -85 37 -161 44 -169 49 -61 317 -66 381 -7 18 17
28 51 51 163 19 94 32 139 38 133 6 -6 18 -10 28 -10 15 0 16 -3 6 -25 -15
-33 1 -69 44 -95 41 -25 71 -28 42 -4 -17 14 -17 15 -1 10 10 -3 21 -6 23 -6
2 0 4 -7 4 -15 0 -8 9 -15 20 -15 18 0 20 5 14 43 -15 102 -39 157 -69 157 -7
0 -24 -9 -38 -20 -27 -21 -62 -26 -72 -10 -3 6 -3 30 0 54 l7 44 56 7 c54 6
182 34 191 41 2 2 -3 14 -11 26 -8 13 -23 36 -33 51 l-18 28 37 -21 c40 -24
65 -21 73 10 4 15 14 20 37 20 17 0 41 3 53 6 19 5 20 8 8 20 -18 18 -29 18
-22 0 4 -10 0 -14 -14 -13 -12 1 -19 9 -19 22 0 20 3 21 50 11 31 -6 45 -13
37 -18 -20 -13 6 -8 31 6 l24 13 -49 42 c-26 22 -65 47 -87 53 -36 11 -40 10
-58 -12 -20 -25 -21 -73 -3 -127 11 -33 -20 -41 -61 -17 -18 10 -69 54 -112
96 -78 76 -144 117 -190 118 -29 0 -78 -25 -85 -43 -5 -14 -57 -30 -57 -18 0
10 41 75 63 99 27 29 52 28 82 -4 23 -24 27 -26 55 -14 16 7 30 16 30 21 0 11
-23 7 -32 -6 -5 -6 -8 -6 -8 1 0 6 7 17 15 24 12 10 18 10 31 0 12 -11 18 -10
32 5 15 17 15 17 0 6 -11 -8 -18 -9 -23 -1 -4 6 -3 10 2 9 4 -1 23 4 41 11 58
22 35 40 -52 40 -56 0 -86 -19 -86 -54 0 -13 -5 -16 -17 -11 -42 17 -51 15
-81 -20 -18 -20 -46 -62 -62 -95 -35 -70 -53 -86 -42 -38 12 56 7 110 -17 187
-28 86 -64 135 -92 126 -13 -4 -19 -1 -19 9 0 39 -50 63 -103 49z m74 -38 c5
4 9 1 9 -4 0 -6 -7 -11 -15 -11 -9 0 -15 9 -14 23 1 17 2 18 6 4 2 -9 9 -15
14 -12z m-91 -37 c22 14 27 4 8 -18 -8 -8 -2 -7 15 3 15 10 27 14 27 10 0 -5
-8 -13 -19 -20 -20 -12 -61 -7 -61 8 0 5 -10 9 -22 10 -22 0 -22 1 -3 8 12 5
23 4 27 -3 5 -8 13 -8 28 2z m79 -14 c-12 -15 -11 -16 9 -10 21 7 22 6 12 -11
-8 -12 -24 -19 -46 -20 l-34 -1 28 28 c29 30 53 40 31 14z m94 -8 c19 -20 57
-114 57 -139 0 -4 -11 -7 -25 -7 -20 0 -25 5 -25 25 0 30 -41 75 -67 75 -13 0
-14 3 -5 12 7 7 12 22 12 35 0 30 25 30 53 -1z m338 -79 c-8 -10 -7 -14 4 -14
8 0 15 4 15 8 0 13 32 19 48 9 13 -8 14 -10 2 -8 -8 1 -24 -2 -35 -8 -11 -6
-27 -10 -35 -9 -8 1 -20 -3 -27 -7 -18 -14 -25 9 -7 26 20 20 52 22 35 3z
m-439 -59 c-14 -14 -32 -1 -27 17 16 50 17 51 27 22 7 -19 7 -32 0 -39z m38
17 c0 -49 -17 -52 -22 -4 -2 22 -2 42 1 44 10 11 21 -9 21 -40z m-80 16 c0
-11 2 -25 5 -33 3 -7 -1 -22 -10 -33 -11 -16 -17 -17 -23 -7 -7 10 -15 10 -36
2 -36 -13 -53 -13 -39 1 5 5 20 11 32 12 23 1 23 2 -3 22 -15 12 -23 24 -20
28 15 15 43 6 61 -19 l19 -26 -4 36 c-3 22 0 36 7 36 6 0 11 -9 11 -19z m110
-15 c0 -14 -4 -28 -10 -31 -6 -4 -10 7 -10 24 0 17 5 31 10 31 6 0 10 -11 10
-24z m340 -26 c0 -5 -4 -10 -10 -10 -5 0 -10 5 -10 10 0 6 5 10 10 10 6 0 10
-4 10 -10z m-560 -10 c0 -11 -91 -52 -99 -44 -3 3 1 9 9 14 8 5 24 16 35 24
22 17 55 21 55 6z m64 -54 c-6 -15 -65 -57 -96 -69 -12 -4 -18 -2 -18 8 0 7
24 27 53 43 61 35 68 37 61 18z m126 5 c0 -17 -100 -101 -121 -101 -18 0 -13
6 24 35 26 20 51 44 57 55 11 20 40 28 40 11z m-220 -10 c0 -16 -62 -49 -81
-44 -30 8 -23 17 29 34 26 10 48 17 50 18 1 1 2 -3 2 -8z m150 1 c0 -5 -18
-18 -40 -31 -22 -12 -40 -26 -40 -32 0 -5 -4 -9 -10 -9 -22 0 -8 20 33 49 44
31 57 37 57 23z m80 -52 c-30 -43 -38 -30 -9 16 12 21 25 32 27 26 2 -6 -6
-26 -18 -42z m297 5 c-43 -39 -47 -41 -47 -21 0 17 48 55 70 56 9 0 -1 -15
-23 -35z m-333 -10 c-14 -19 -28 -35 -29 -35 -2 0 -12 -3 -22 -6 -10 -4 -2 10
22 35 48 50 66 54 29 6z m426 28 c0 -8 -31 -25 -77 -43 -34 -14 -28 5 10 29
32 21 67 28 67 14z m370 -22 c9 -1 1 -10 -18 -21 -40 -24 -43 -25 -35 -3 4 11
3 14 -5 9 -7 -4 -12 -3 -12 2 0 14 9 19 33 17 12 -1 29 -3 37 -4z m-327 -16
c-1 -5 -21 -14 -44 -18 -23 -5 -55 -18 -71 -30 -22 -16 -31 -18 -40 -9 -14 14
-15 13 47 46 49 25 112 32 108 11z m-237 -32 c-11 -32 -18 -39 -44 -41 -40 -4
-40 4 0 45 44 46 61 44 44 -4z m579 17 c-4 -7 3 -8 22 -4 34 8 21 -10 -16 -21
-18 -5 -22 -4 -16 6 6 9 3 11 -8 6 -10 -3 -17 -2 -17 3 0 5 8 11 18 13 9 3 18
5 20 6 2 0 0 -4 -3 -9z m-307 -45 c-9 -9 -118 -28 -125 -21 -11 11 5 18 52 23
25 3 48 10 51 15 4 6 10 6 17 -1 6 -6 8 -13 5 -16z m377 15 c3 -5 -3 -10 -14
-10 -12 0 -21 5 -21 10 0 6 6 10 14 10 8 0 18 -4 21 -10z m-135 -20 c0 -17 -2
-19 -14 -8 -14 13 -12 28 5 28 5 0 9 -9 9 -20z m-999 -5 l8 20 0 -20 c1 -17 3
-17 11 -5 8 13 10 12 10 -2 0 -10 -3 -19 -7 -19 -41 -7 -53 -5 -53 11 0 24 14
35 19 13 3 -17 4 -17 12 2z m1016 -17 c-3 -7 -5 -2 -5 12 0 14 2 19 5 13 2 -7
2 -19 0 -25z m-206 2 c5 0 9 -9 9 -19 0 -17 -9 -20 -66 -23 -68 -3 -83 2 -61
20 17 14 79 31 95 26 8 -2 18 -4 23 -4z m-340 -55 c8 -58 25 -84 72 -105 l41
-18 -40 -9 c-91 -19 -364 1 -352 26 17 36 71 93 106 110 23 12 45 21 47 21 3
0 -4 -18 -15 -39 -12 -25 -16 -42 -10 -46 6 -3 10 -2 10 2 0 5 14 30 30 57 28
44 33 47 68 44 35 -3 37 -5 43 -43z m69 33 c-1 -19 -29 -53 -37 -45 -8 9 14
57 27 57 5 0 10 -6 10 -12z m26 -20 c-4 -13 -9 -35 -12 -50 -7 -31 -24 -38
-24 -9 0 28 21 81 32 81 6 0 8 -10 4 -22z m-565 -11 c-15 -19 -1 -30 17 -14
11 8 10 4 -3 -16 -10 -15 -20 -25 -23 -22 -3 2 -11 0 -18 -6 -15 -12 -64 -20
-64 -10 0 10 56 41 63 35 3 -3 8 0 13 7 4 8 3 10 -4 5 -17 -10 -15 0 4 18 19
19 31 21 15 3z m662 -8 c3 -12 10 -18 15 -15 15 9 64 -12 57 -24 -4 -6 -15 -6
-30 0 -28 11 -30 5 -10 -30 18 -31 18 -40 3 -40 -23 0 -48 34 -48 64 0 24 -3
27 -10 16 -5 -8 -10 -25 -10 -37 0 -13 -5 -23 -11 -23 -12 0 -6 80 7 101 10
16 32 9 37 -12z m-717 -3 c23 9 19 5 -25 -26 -19 -13 -31 -19 -27 -12 4 7 3
12 -3 12 -5 0 -13 -4 -16 -10 -7 -12 -35 -14 -35 -2 0 12 74 49 81 40 3 -5 14
-6 25 -2z m644 -40 c-13 -41 -33 -39 -24 2 11 51 14 56 25 45 8 -8 8 -21 -1
-47z m288 23 c15 -24 8 -39 -10 -21 -7 7 -27 12 -44 12 -32 0 -50 11 -37 24 3
3 23 6 42 6 26 0 40 -6 49 -21z m-1046 -9 c-13 -10 -30 -16 -39 -13 -12 5 -9
9 13 19 42 18 52 16 26 -6z m351 -42 c-20 -20 -53 -20 -53 0 0 9 62 31 69 25
3 -2 -5 -13 -16 -25z m657 2 c0 -15 -70 -31 -91 -19 -34 18 -20 29 36 29 30 0
55 -4 55 -10z m-888 -54 c6 4 9 1 6 -6 -8 -24 -28 -23 -27 2 0 13 3 17 6 10 2
-6 9 -9 15 -6z m-35 -18 c-3 -8 -6 -5 -6 6 -1 11 2 17 5 13 3 -3 4 -12 1 -19z
m28 -38 c7 -11 -11 -40 -23 -38 -4 0 -9 -1 -12 -2 -3 -1 -13 -3 -23 -5 -15 -3
-16 -1 -6 11 7 9 8 14 1 14 -6 0 -13 -4 -16 -8 -6 -10 -82 -9 -92 1 -4 4 0 7
10 7 10 0 14 5 10 11 -4 8 0 8 15 0 12 -7 26 -9 32 -6 16 11 59 13 53 4 -3 -5
-1 -9 4 -9 6 0 12 7 16 15 6 17 22 20 31 5z m859 -36 c9 -3 13 -10 10 -15 -3
-5 0 -9 5 -9 6 0 11 -4 11 -9 0 -4 -13 -8 -30 -7 -31 1 -39 11 -17 19 9 4 8 8
-3 16 -17 12 -2 15 24 5z m-50 -65 c-3 -5 -10 -7 -15 -3 -5 3 -7 10 -3 15 3 5
10 7 15 3 5 -3 7 -10 3 -15z m66 1 c13 -9 13 -10 0 -10 -8 -1 -4 -6 9 -11 29
-11 21 -24 -9 -14 -12 4 -19 12 -16 20 3 8 0 16 -7 19 -7 2 -7 5 -2 5 6 0 17
-4 25 -9z m-929 -13 c-1 -12 -15 -9 -19 4 -3 6 1 10 8 8 6 -3 11 -8 11 -12z
m867 -24 c0 -22 -1 -22 -14 -6 -17 23 -17 30 0 30 8 0 14 -11 14 -24z m42 -18
c0 -3 -4 -3 -10 0 -5 3 -10 -2 -11 -12 -1 -12 -3 -10 -8 7 -5 14 -6 28 -4 33
4 7 33 -17 33 -28z m50 -16 c0 -6 -4 -7 -10 -4 -5 3 -10 11 -10 16 0 6 5 7 10
4 6 -3 10 -11 10 -16z"/>
<path d="M3327 4438 c-15 -12 -14 -13 13 -14 24 -1 28 1 19 12 -14 17 -11 17
-32 2z"/>
<path d="M1930 4397 c-54 -26 -69 -40 -90 -78 -14 -26 -46 -73 -71 -104 -88
-108 -163 -260 -210 -421 -34 -120 -39 -380 -10 -522 64 -310 189 -541 421
-773 207 -209 403 -326 732 -437 95 -32 200 -73 233 -90 l60 -31 -295 0 -295
1 50 23 c54 26 182 55 242 55 l38 1 -57 23 c-186 78 -311 55 -390 -71 l-20
-33 -824 0 -824 0 0 -540 0 -540 3280 0 3280 0 0 540 0 540 -1123 0 -1124 0
-19 21 c-63 71 -190 76 -342 14 l-57 -23 50 -4 c28 -3 3 -5 -54 -6 -57 -1
-102 0 -100 2 2 2 73 27 157 55 306 103 509 225 712 430 232 232 357 463 421
773 29 142 24 402 -10 522 -47 161 -122 313 -210 421 -25 31 -57 78 -71 104
-21 38 -36 52 -90 78 -89 45 -99 42 -55 -14 48 -60 95 -102 116 -103 8 0 28
-14 45 -31 l29 -30 -29 11 c-34 12 -84 0 -109 -28 -14 -16 -11 -17 51 -17 86
-1 121 -16 154 -67 30 -47 30 -55 0 -39 -31 16 -58 13 -105 -11 l-42 -22 75
-12 c117 -18 143 -35 173 -111 l26 -64 -32 30 c-25 26 -39 31 -76 31 -25 -1
-57 -7 -70 -14 -24 -13 -23 -14 34 -31 33 -9 83 -32 111 -51 55 -37 59 -44 79
-169 l6 -40 -20 42 c-28 59 -70 83 -148 83 -35 0 -63 -4 -63 -8 0 -4 19 -17
43 -29 53 -26 121 -85 158 -136 27 -37 29 -46 28 -131 l-1 -91 -13 48 c-7 26
-20 59 -29 72 -21 33 -84 64 -143 71 l-48 6 52 -53 c64 -67 110 -143 132 -217
l17 -57 -34 -110 c-42 -136 -54 -157 -46 -85 9 79 -8 132 -56 173 -38 32 -97
57 -135 57 -12 0 -4 -17 34 -64 60 -75 108 -173 117 -236 5 -40 1 -54 -41
-130 -59 -106 -67 -116 -44 -48 46 134 3 222 -142 285 l-26 11 37 -73 c44 -87
65 -175 64 -267 0 -78 -18 -109 -111 -198 -32 -30 -48 -44 -36 -30 58 67 79
178 47 245 -15 33 -121 141 -129 133 -2 -2 3 -26 12 -53 20 -65 23 -248 4
-335 -16 -73 -34 -95 -142 -170 l-64 -44 29 34 c41 49 56 91 56 155 0 62 -15
105 -63 180 l-32 50 -7 -105 c-8 -132 -27 -203 -80 -308 l-43 -83 -87 -40
c-102 -45 -117 -49 -67 -15 44 30 96 106 105 153 10 53 -2 123 -31 189 -31 67
-34 64 -55 -46 -21 -116 -87 -251 -160 -330 -27 -30 -55 -44 -127 -69 l-92
-31 -624 0 -625 0 -69 34 c-38 19 -111 49 -163 66 -75 25 -102 40 -130 70 -73
79 -139 214 -160 330 -21 110 -24 113 -55 46 -29 -66 -41 -136 -31 -189 9 -47
61 -123 105 -153 50 -34 35 -30 -67 15 l-87 40 -43 83 c-53 105 -72 176 -80
308 l-7 105 -32 -50 c-48 -75 -63 -118 -63 -180 0 -64 15 -106 56 -155 l29
-34 -64 44 c-108 75 -126 97 -142 170 -19 87 -16 270 4 335 9 27 14 51 12 53
-8 8 -114 -100 -129 -133 -32 -67 -11 -178 47 -245 12 -14 -4 0 -36 30 -93 89
-111 120 -111 198 -1 92 20 180 64 267 l37 73 -26 -11 c-145 -63 -188 -151
-142 -285 23 -68 15 -58 -44 48 -42 76 -46 90 -41 130 9 63 57 161 117 236 38
47 46 64 34 64 -38 0 -97 -25 -135 -57 -48 -41 -65 -94 -56 -173 8 -72 -4 -51
-46 85 l-34 110 17 57 c22 74 68 150 132 217 l52 53 -48 -6 c-59 -7 -122 -38
-143 -71 -9 -13 -22 -46 -29 -72 l-13 -48 -1 91 c-1 85 1 94 28 131 37 51 105
110 159 136 23 12 42 25 42 29 0 4 -28 8 -62 8 -79 0 -121 -24 -149 -83 l-20
-42 6 40 c20 125 24 132 79 169 28 19 78 42 111 51 57 17 58 18 34 31 -13 7
-45 13 -70 14 -37 0 -51 -5 -76 -31 l-32 -30 26 64 c30 76 56 93 173 111 l75
12 -42 22 c-47 24 -74 27 -105 11 -30 -16 -30 -8 0 39 33 51 68 66 154 67 62
0 65 1 51 17 -25 28 -75 40 -109 28 l-29 -11 29 30 c17 17 37 31 45 31 21 1
68 43 116 103 44 56 34 59 -55 14z m5180 -2522 c0 -20 -5 -25 -25 -25 -20 0
-25 5 -25 25 0 20 5 25 25 25 20 0 25 -5 25 -25z m-6380 -10 c0 -20 -5 -25
-25 -25 -20 0 -25 5 -25 25 0 20 5 25 25 25 20 0 25 -5 25 -25z m6380 -70 c0
-20 -5 -25 -25 -25 -20 0 -25 5 -25 25 0 20 5 25 25 25 20 0 25 -5 25 -25z
m-6380 -10 c0 -20 -5 -25 -25 -25 -20 0 -25 5 -25 25 0 20 5 25 25 25 20 0 25
-5 25 -25z m6380 -70 c0 -20 -5 -25 -25 -25 -20 0 -25 5 -25 25 0 20 5 25 25
25 20 0 25 -5 25 -25z m-6380 -10 c0 -20 -5 -25 -25 -25 -20 0 -25 5 -25 25 0
20 5 25 25 25 20 0 25 -5 25 -25z m1052 -34 l32 -28 -82 -205 c-45 -112 -82
-210 -82 -217 0 -10 10 -12 43 -6 134 24 135 24 147 -8 5 -16 7 -33 4 -38 -3
-5 -29 -9 -57 -9 -29 0 -81 -5 -116 -11 -64 -10 -65 -10 -93 18 l-28 29 39 89
c42 98 105 286 122 365 12 58 25 62 71 21z m512 14 c20 -8 36 -19 36 -23 0 -4
-11 -42 -25 -85 -35 -108 -55 -234 -55 -340 l0 -90 -37 6 c-61 10 -65 20 -56
131 5 53 7 99 4 101 -2 3 -33 5 -68 5 l-64 0 -29 -62 c-17 -35 -35 -89 -42
-120 -13 -62 -23 -69 -59 -39 l-23 18 18 49 c10 27 31 73 47 102 l29 52 -26 0
c-21 0 -24 3 -15 14 6 7 24 16 39 20 19 4 39 23 67 67 42 64 187 209 210 209
7 0 29 -7 49 -15z m464 -10 c36 -15 42 -21 42 -47 0 -36 -16 -68 -34 -68 -7 0
-21 9 -31 20 -55 61 -255 61 -255 1 0 -27 36 -54 145 -109 131 -65 150 -86
150 -162 0 -63 -16 -95 -69 -134 -23 -17 -42 -21 -109 -21 -96 1 -165 26 -217
80 -29 30 -32 38 -27 71 4 21 12 44 20 51 11 11 17 7 38 -24 49 -77 204 -125
279 -86 42 22 60 63 39 89 -8 9 -63 40 -124 69 -60 29 -122 64 -137 79 -63 64
-37 153 57 198 49 23 168 20 233 -7z m632 -6 c24 -13 57 -41 74 -62 30 -37 31
-43 31 -130 0 -75 -4 -100 -23 -138 -87 -177 -306 -250 -411 -136 l-24 26 70
183 c84 218 87 228 75 228 -16 0 -81 -78 -88 -105 -8 -32 -29 -32 -50 1 -16
23 -16 28 -1 59 17 36 65 76 112 94 17 6 66 9 110 8 63 -3 90 -8 125 -28z
m574 9 c24 -33 20 -38 -26 -38 -24 0 -66 -3 -95 -6 l-51 -7 -31 -66 -31 -66
52 -3 c59 -4 80 -16 76 -44 -3 -16 -14 -20 -75 -23 -40 -2 -77 -6 -82 -9 -11
-7 -58 -128 -67 -175 l-7 -34 39 7 c21 4 72 10 112 13 80 7 92 1 92 -44 0 -22
-4 -23 -83 -23 -46 0 -110 -5 -142 -11 -57 -10 -58 -10 -88 19 l-29 30 41 106
42 107 -23 18 -23 19 37 15 c33 14 39 22 58 83 11 37 19 67 18 68 -26 10 -44
28 -46 49 l-3 26 113 4 c62 1 134 4 160 5 39 2 50 -2 62 -20z m169 11 c12 -6
29 -21 39 -32 14 -18 15 -25 3 -47 -21 -41 -155 -379 -155 -391 0 -8 13 -9 43
-4 131 23 138 23 148 -2 18 -47 13 -53 -43 -53 -29 0 -84 -5 -123 -10 -68 -10
-69 -10 -97 17 l-28 28 39 90 c52 122 95 244 117 338 9 42 22 77 26 77 5 0 19
-5 31 -11z m766 -4 c39 -20 46 -56 22 -111 -24 -53 -45 -64 -73 -36 l-21 20
27 34 c52 70 20 108 -57 66 -54 -30 -120 -127 -148 -219 -39 -129 -12 -254 50
-234 12 4 51 29 87 57 104 79 99 41 -7 -57 -61 -56 -63 -57 -112 -52 -57 5
-95 30 -120 78 -29 54 -20 195 18 274 34 71 108 148 168 175 50 23 127 26 166
5z m614 -1 c18 -9 33 -18 35 -19 1 -1 -9 -36 -22 -77 -35 -103 -56 -234 -56
-346 l0 -95 -36 6 c-64 11 -67 18 -59 134 l7 103 -66 0 -67 0 -29 -62 c-17
-35 -35 -89 -42 -120 -7 -32 -17 -58 -23 -58 -20 0 -55 31 -55 48 0 9 19 56
43 105 42 85 42 87 20 87 -36 0 -27 18 15 30 29 8 44 22 71 65 48 76 189 214
219 215 7 0 27 -7 45 -16z m445 -5 c56 -19 62 -23 62 -49 0 -15 -8 -38 -18
-51 l-19 -22 -35 27 c-71 53 -221 57 -248 5 -15 -28 14 -52 146 -119 125 -64
148 -89 147 -158 -1 -59 -22 -103 -65 -134 -28 -19 -45 -23 -113 -23 -71 0
-88 4 -148 33 -96 48 -122 97 -82 158 l17 26 18 -30 c40 -65 124 -107 215
-107 89 1 142 44 116 93 -6 11 -66 47 -135 81 -132 65 -166 94 -166 145 0 120
146 180 308 125z m-1431 -21 c11 -9 11 -14 -1 -27 -53 -61 -146 -342 -146
-443 0 -44 -16 -49 -47 -15 -31 33 -36 61 -23 125 23 120 102 336 136 374 13
13 21 15 42 7 15 -6 32 -15 39 -21z m598 15 c19 -9 35 -20 35 -24 0 -5 -11
-24 -24 -44 -45 -65 -113 -280 -131 -407 -7 -52 -20 -60 -49 -27 -38 45 -31
123 26 294 28 84 93 225 103 225 2 0 20 -8 40 -17z m1985 -38 c0 -20 -5 -25
-25 -25 -20 0 -25 5 -25 25 0 20 5 25 25 25 20 0 25 -5 25 -25z m-6380 -10 c0
-20 -5 -25 -25 -25 -20 0 -25 5 -25 25 0 20 5 25 25 25 20 0 25 -5 25 -25z
m6380 -66 c0 -26 -3 -30 -22 -27 -17 2 -24 11 -26 31 -3 23 0 27 22 27 22 0
26 -4 26 -31z m-6380 -10 c0 -26 -3 -30 -22 -27 -17 2 -24 11 -26 31 -3 23 0
27 22 27 22 0 26 -4 26 -31z m6380 -64 c0 -20 -5 -25 -25 -25 -20 0 -25 5 -25
25 0 20 5 25 25 25 20 0 25 -5 25 -25z m-6380 -10 c0 -20 -5 -25 -25 -25 -20
0 -25 5 -25 25 0 20 5 25 25 25 20 0 25 -5 25 -25z m6380 -70 c0 -20 -5 -25
-25 -25 -20 0 -25 5 -25 25 0 20 5 25 25 25 20 0 25 -5 25 -25z m-6380 -10 c0
-20 -5 -25 -25 -25 -20 0 -25 5 -25 25 0 20 5 25 25 25 20 0 25 -5 25 -25z
m619 -12 c11 -24 10 -29 -6 -41 -19 -14 -57 -12 -155 10 -100 22 -65 55 46 44
35 -4 67 -2 76 4 22 14 26 13 39 -17z m5111 -25 c0 -38 -58 -36 -219 8 -11 4
-11 7 0 20 11 14 27 16 84 11 38 -3 79 -2 90 3 23 9 45 -12 45 -42z m650 -33
c0 -20 -5 -25 -25 -25 -20 0 -25 5 -25 25 0 20 5 25 25 25 20 0 25 -5 25 -25z
m-6380 -10 c0 -20 -5 -25 -25 -25 -20 0 -25 5 -25 25 0 20 5 25 25 25 20 0 25
-5 25 -25z m6380 -70 c0 -20 -5 -25 -25 -25 -20 0 -25 5 -25 25 0 20 5 25 25
25 20 0 25 -5 25 -25z m-6380 -10 c0 -20 -5 -25 -25 -25 -20 0 -25 5 -25 25 0
20 5 25 25 25 20 0 25 -5 25 -25z m6380 -65 c0 -25 -4 -30 -25 -30 -20 0 -25
5 -25 23 0 28 7 37 32 37 13 0 18 -8 18 -30z m-6380 -10 c0 -25 -4 -30 -25
-30 -20 0 -25 5 -25 23 0 28 7 37 32 37 13 0 18 -8 18 -30z m6380 -65 c0 -20
-5 -25 -25 -25 -20 0 -25 5 -25 25 0 20 5 25 25 25 20 0 25 -5 25 -25z m-6380
-10 c0 -20 -5 -25 -25 -25 -20 0 -25 5 -25 25 0 20 5 25 25 25 20 0 25 -5 25
-25z m6380 -70 c0 -20 -5 -25 -25 -25 -20 0 -25 5 -25 25 0 20 5 25 25 25 20
0 25 -5 25 -25z m-6380 -10 c0 -20 -5 -25 -25 -25 -20 0 -25 5 -25 25 0 20 5
25 25 25 20 0 25 -5 25 -25z m6380 -70 c0 -20 -5 -25 -25 -25 -20 0 -25 5 -25
25 0 20 5 25 25 25 20 0 25 -5 25 -25z m-6380 -10 c0 -20 -5 -25 -25 -25 -20
0 -25 5 -25 25 0 20 5 25 25 25 20 0 25 -5 25 -25z"/>
<path d="M2149 1553 c-25 -27 -56 -63 -68 -80 l-22 -33 58 0 59 0 17 73 c10
39 17 75 17 80 0 16 -18 5 -61 -40z"/>
<path d="M3242 1662 c-8 -6 -2 -13 22 -24 l34 -17 -54 -106 c-62 -124 -114
-255 -114 -286 0 -20 3 -21 55 -16 134 14 239 131 251 282 6 68 -12 115 -56
147 -28 20 -118 34 -138 20z"/>
<path d="M5399 1586 c-26 -22 -119 -133 -119 -141 0 -3 26 -5 58 -5 l57 0 18
81 c10 44 17 82 15 84 -2 2 -15 -7 -29 -19z"/>
<path d="M1725 4339 c10 -45 8 -110 -4 -142 -16 -40 -4 -33 29 20 42 66 38
117 -11 144 -20 10 -21 9 -14 -22z"/>
<path d="M2846 4119 c-225 -166 -261 -189 -272 -175 -13 19 -34 21 -34 3 0
-18 69 -112 83 -112 11 0 12 7 5 46 -3 15 222 187 459 354 23 17 45 36 48 43
6 17 -2 32 -18 32 -7 -1 -129 -86 -271 -191z"/>
<path d="M5495 4275 c-33 -32 -32 -71 5 -128 33 -53 45 -60 29 -20 -12 32 -14
97 -4 141 8 38 2 40 -30 7z"/>
<path d="M1580 4226 c0 -2 7 -20 16 -41 11 -27 14 -61 12 -116 -2 -44 -2 -79
0 -79 2 0 17 29 34 65 35 76 33 103 -14 147 -26 25 -48 36 -48 24z"/>
<path d="M3963 4214 c-3 -8 -1 -20 6 -27 17 -17 14 -27 -11 -37 -17 -6 -18 -9
-6 -9 9 -1 19 3 23 8 3 5 20 7 39 4 19 -3 36 -1 40 6 5 7 -3 9 -26 5 -31 -6
-32 -6 -13 9 12 9 30 14 45 11 14 -3 20 -2 14 3 -6 4 -10 16 -8 26 3 21 -12
23 -20 1 -3 -8 -10 -12 -16 -9 -5 3 -10 0 -10 -7 0 -9 -3 -9 -10 2 -8 12 -10
12 -11 -5 0 -11 -3 -14 -6 -7 -2 6 -9 9 -15 6 -6 -4 -9 -1 -6 7 3 8 17 14 32
15 41 2 44 14 2 14 -24 0 -39 -5 -43 -16z"/>
<path d="M4075 4221 c-3 -5 -1 -12 4 -15 5 -3 11 1 15 9 6 16 -9 21 -19 6z"/>
<path d="M5622 4132 c-47 -44 -49 -71 -14 -147 17 -36 32 -65 34 -65 2 0 2 35
0 79 -2 55 1 89 12 116 9 21 16 39 16 41 0 12 -22 1 -48 -24z"/>
<path d="M1465 3994 c37 -48 65 -124 66 -177 l1 -42 18 50 c38 103 18 160 -66
189 l-46 15 27 -35z"/>
<path d="M3054 3984 c-15 -13 -16 -15 -2 -10 9 3 19 0 21 -7 3 -9 8 -9 16 -1
9 8 9 14 -2 22 -10 9 -18 8 -33 -4z"/>
<path d="M2474 3946 c-7 -18 100 -166 120 -166 30 0 24 20 -28 96 -53 78 -81
99 -92 70z"/>
<path d="M5765 3944 c-83 -30 -103 -87 -65 -189 l18 -50 1 42 c1 53 29 129 66
177 15 20 26 36 24 35 -2 0 -22 -7 -44 -15z"/>
<path d="M2421 3941 c-20 -13 -9 -34 69 -139 59 -79 81 -95 88 -59 3 12 -130
208 -141 207 -1 0 -8 -4 -16 -9z"/>
<path d="M2380 3872 c0 -11 21 -48 47 -83 49 -68 62 -81 78 -76 23 8 12 36
-38 102 -54 71 -87 93 -87 57z"/>
<path d="M2355 3830 c-4 -6 12 -36 34 -68 35 -50 41 -65 41 -110 0 -40 -4 -53
-19 -62 -39 -20 -51 -41 -51 -85 0 -33 -5 -47 -19 -54 -35 -19 -41 -66 -41
-300 0 -263 -1 -261 88 -288 72 -22 344 -25 437 -4 108 24 105 15 105 303 l0
249 -26 26 c-20 20 -27 38 -28 71 -2 53 -25 74 -106 99 -59 18 -209 24 -272
10 l-38 -8 0 56 c0 49 -5 63 -37 110 -39 56 -58 71 -68 55z m422 -274 c46 -19
58 -38 43 -66 -13 -24 -35 -31 -155 -44 -55 -6 -100 -15 -100 -21 0 -17 131
-17 196 -1 54 14 62 14 83 0 13 -8 27 -25 30 -37 3 -12 6 -117 6 -234 0 -173
-3 -214 -15 -226 -8 -8 -47 -21 -87 -27 -95 -16 -342 -9 -383 11 l-30 14 -3
233 -2 233 25 25 c20 20 25 34 23 70 -2 54 4 62 30 36 41 -41 241 -55 325 -23
77 29 -15 55 -181 49 -82 -3 -121 -1 -119 7 6 17 58 24 167 21 70 -2 119 -9
147 -20z"/>
<path d="M2425 3205 c-16 -13 -20 -30 -23 -90 -8 -149 4 -165 144 -185 88 -13
214 -1 265 26 33 16 39 38 39 137 0 70 -2 80 -26 103 -19 20 -31 24 -51 19
-31 -7 -271 -8 -304 -1 -14 4 -32 -1 -44 -9z"/>
<path d="M1348 3730 c64 -50 98 -95 127 -166 l23 -57 7 46 c20 133 -42 217
-161 217 l-46 0 50 -40z"/>
<path d="M4560 3713 c-31 -66 -17 -270 18 -267 7 1 42 2 80 3 l67 1 19 46 c10
25 42 70 71 100 37 37 49 56 41 63 -45 36 -183 81 -252 81 -24 0 -34 -6 -44
-27z"/>
<path d="M4419 3706 c-119 -42 -203 -115 -259 -225 -16 -33 -30 -62 -30 -63 0
-2 36 -3 80 -3 73 -1 86 -4 162 -43 46 -23 90 -42 99 -42 9 0 28 9 43 21 30
24 33 51 11 123 -18 60 -19 168 -1 219 14 37 13 37 -13 37 -14 0 -56 -11 -92
-24z"/>
<path d="M5823 3685 c-59 -26 -92 -110 -78 -202 l7 -46 23 57 c29 71 63 116
127 166 l50 40 -49 0 c-26 -1 -63 -7 -80 -15z"/>
<path d="M4864 3601 c-34 -21 -72 -66 -98 -118 -20 -40 -20 -43 2 -43 10 0 44
-16 76 -35 69 -42 107 -44 141 -10 30 29 34 88 9 125 -20 30 -86 100 -94 100
-3 0 -19 -9 -36 -19z"/>
<path d="M1257 3436 l-29 -13 60 -22 c76 -27 174 -98 214 -156 17 -25 33 -43
35 -42 7 8 -35 145 -55 176 -32 53 -68 71 -137 70 -33 0 -73 -6 -88 -13z"/>
<path d="M4113 3363 c-13 -45 -9 -194 6 -245 l14 -48 28 24 c30 25 127 66 157
66 30 0 39 13 65 89 l24 73 -71 34 c-60 29 -81 34 -143 34 -71 0 -73 -1 -80
-27z"/>
<path d="M5817 3361 c-16 -10 -38 -34 -49 -52 -20 -31 -62 -168 -55 -176 2 -1
18 17 35 42 40 58 138 129 213 156 l60 22 -31 14 c-48 20 -139 17 -173 -6z"/>
<path d="M4480 3079 c0 -151 6 -180 39 -206 11 -9 74 -12 214 -13 197 0 198 0
222 25 14 13 25 33 25 45 0 17 6 20 45 20 70 0 85 21 85 123 0 106 -13 127
-76 127 -30 0 -46 5 -50 15 -5 13 -43 15 -255 15 l-249 0 0 -151z m570 -5 l0
-65 -32 3 c-33 3 -33 3 -36 66 l-3 62 36 0 35 0 0 -66z"/>
<path d="M4301 3133 c-58 -14 -106 -40 -135 -72 -18 -20 -17 -22 10 -68 45
-77 76 -103 124 -103 32 0 47 6 66 28 28 30 29 55 2 173 l-13 56 -54 -14z"/>
<path d="M1405 3121 c-16 -4 -43 -14 -59 -23 l-29 -15 39 -7 c74 -14 144 -54
219 -127 l74 -71 -15 48 c-23 79 -63 152 -95 175 -33 23 -89 32 -134 20z"/>
<path d="M5732 3044 c-50 -25 -84 -82 -118 -193 l-13 -43 74 71 c75 73 145
113 219 127 l39 7 -35 18 c-53 27 -126 33 -166 13z"/>
<path d="M3414 2841 c-70 -35 -152 -116 -188 -185 -26 -49 -26 -51 -26 -286 0
-189 3 -240 14 -249 20 -17 864 50 877 70 5 8 9 46 9 84 0 67 -1 71 -30 87
-16 9 -32 29 -36 44 -6 24 -2 33 29 60 33 28 37 36 37 80 l0 49 -306 135
c-168 74 -309 136 -313 138 -4 1 -34 -11 -67 -27z m96 -46 c14 -8 20 -14 14
-15 -19 0 -24 -28 -8 -45 17 -16 85 -20 112 -6 12 5 46 -5 112 -35 l95 -44
-272 0 c-184 0 -273 3 -273 10 0 18 94 107 136 129 47 24 52 24 84 6z m330
-219 c0 -39 -11 -57 -44 -71 -49 -21 -105 11 -106 61 0 31 7 34 82 34 65 0 68
-1 68 -24z m-356 -57 c55 -43 18 -129 -56 -129 -41 0 -63 14 -77 49 -31 74 66
133 133 80z m148 -76 c40 -36 7 -92 -48 -79 -32 8 -42 50 -19 76 22 24 43 25
67 3z m318 -81 c46 -37 -9 -106 -59 -75 -26 16 -26 59 1 77 28 20 31 20 58 -2z
m-182 -52 c45 -42 36 -107 -18 -135 -83 -43 -159 60 -95 129 30 32 81 35 113
6z m-377 -10 c41 -23 16 -90 -35 -90 -20 0 -46 28 -46 50 0 22 26 50 46 50 9
0 24 -5 35 -10z"/>
<path d="M1485 2796 c-27 -14 -61 -34 -75 -45 l-25 -21 56 0 c119 0 238 -34
337 -97 l54 -34 -24 42 c-32 59 -111 144 -152 163 -49 23 -112 20 -171 -8z"/>
<path d="M4420 2806 c0 -8 10 -22 22 -30 19 -14 64 -16 294 -16 246 0 272 2
286 18 37 43 45 42 -286 42 -269 0 -316 -2 -316 -14z"/>
<path d="M5592 2733 c-39 -19 -118 -104 -150 -162 l-24 -42 54 34 c99 63 218
97 337 97 l56 0 -25 21 c-77 63 -181 85 -248 52z"/>
<path d="M1720 2519 c-37 -15 -84 -54 -119 -98 l-31 -39 52 14 c127 33 277 27
392 -17 28 -10 51 -17 53 -15 8 8 -125 120 -169 142 -51 26 -131 32 -178 13z"/>
<path d="M5350 2436 c-43 -23 -175 -135 -167 -142 2 -2 25 5 53 15 116 44 265
50 392 17 l53 -15 -34 42 c-60 74 -108 101 -185 104 -55 3 -75 -1 -112 -21z"/>
<path d="M2060 2234 c-51 -22 -98 -71 -132 -138 -16 -32 -28 -60 -26 -62 2 -2
43 16 90 40 110 55 226 80 337 74 45 -3 81 -4 81 -2 0 8 -115 66 -167 83 -73
25 -134 26 -183 5z"/>
<path d="M5000 2157 c-55 -20 -160 -73 -160 -81 0 -2 36 -1 81 2 111 6 227
-19 337 -74 47 -24 88 -42 90 -40 8 9 -59 124 -90 153 -69 66 -148 79 -258 40z"/>
<path d="M6960 580 l0 -210 55 0 55 0 0 210 0 210 -55 0 -55 0 0 -210z"/>
<path d="M7120 580 c0 -203 1 -210 20 -210 19 0 20 7 20 210 0 203 -1 210 -20
210 -19 0 -20 -7 -20 -210z"/>
<path d="M6190 560 l0 -210 60 0 60 0 0 210 0 210 -60 0 -60 0 0 -210z"/>
<path d="M6770 520 l0 -210 60 0 60 0 0 210 0 210 -60 0 -60 0 0 -210z"/>
<path d="M6390 510 l0 -210 55 0 55 0 0 210 0 210 -55 0 -55 0 0 -210z"/>
<path d="M3820 674 c-24 -13 -24 -14 -3 -14 28 0 53 10 53 21 0 12 -20 10 -50
-7z"/>
<path d="M1390 465 l0 -215 60 0 60 0 0 215 0 215 -60 0 -60 0 0 -215z"/>
<path d="M6570 470 l0 -210 55 0 55 0 0 210 0 210 -55 0 -55 0 0 -210z"/>
<path d="M1771 623 c-42 -22 -57 -44 -47 -69 7 -17 9 -16 22 8 14 27 54 57 54
40 0 -4 -18 -53 -39 -108 l-40 -99 25 -22 c56 -51 153 -10 195 82 44 95 6 168
-93 181 -31 4 -53 0 -77 -13z m139 -23 c26 -26 27 -93 1 -140 -24 -46 -75 -80
-119 -80 -32 0 -34 1 -27 28 3 15 24 64 45 108 38 81 38 82 16 92 -18 9 -15
11 22 11 29 1 48 -5 62 -19z"/>
<path d="M2070 625 c0 -9 6 -18 14 -21 19 -7 4 -63 -24 -86 -11 -9 -15 -18
-10 -20 7 -2 3 -25 -11 -61 -29 -76 -21 -84 79 -79 62 3 73 6 70 20 -4 18 -38
22 -97 9 -32 -7 -33 -6 -26 20 3 15 13 42 20 60 13 30 18 33 55 33 47 0 52 23
7 28 -31 4 -33 12 -12 52 14 27 20 30 66 30 45 0 50 2 39 15 -18 22 -170 22
-170 0z"/>
<path d="M2330 568 c-12 -40 -33 -99 -47 -131 -33 -74 -25 -85 65 -79 63 4 68
7 53 30 -6 10 -18 11 -49 3 -23 -5 -44 -6 -47 -2 -2 4 16 56 40 116 32 80 41
113 33 122 -19 23 -26 14 -48 -59z"/>
<path d="M2737 573 c-3 -38 -13 -90 -23 -116 -16 -48 -71 -117 -93 -117 -15 0
-14 43 1 58 9 9 7 13 -6 18 -20 8 -36 -10 -36 -41 0 -47 58 -60 103 -25 33 26
73 110 93 196 14 64 14 69 -2 81 -10 7 -21 13 -24 13 -4 0 -10 -30 -13 -67z"/>
<path d="M2919 561 c-43 -45 -74 -81 -69 -81 6 0 -2 -25 -17 -55 -23 -46 -25
-57 -13 -65 11 -6 18 5 34 53 21 62 21 62 64 65 l42 3 0 -60 c0 -34 2 -61 4
-61 2 0 11 -2 19 -5 11 -5 15 11 20 82 3 48 13 108 21 132 20 54 20 48 -5 62
-19 10 -29 3 -100 -70z m59 -9 c-7 -30 -16 -42 -28 -42 -10 0 -25 -3 -34 -6
-9 -3 -16 -1 -16 5 0 12 78 96 85 90 2 -3 -1 -24 -7 -47z"/>
<path d="M3175 629 c-48 -12 -63 -25 -47 -41 9 -9 18 -9 37 0 34 16 33 7 -16
-104 -38 -86 -44 -124 -21 -124 5 0 19 27 31 61 28 74 46 74 70 1 22 -63 33
-77 55 -65 13 7 11 14 -15 52 -31 47 -38 81 -15 81 8 0 28 12 45 26 43 36 44
87 1 109 -32 17 -65 18 -125 4z m143 -51 c3 -22 -3 -32 -30 -48 -30 -18 -88
-28 -88 -15 0 3 10 25 23 50 20 42 25 45 57 43 30 -3 35 -7 38 -30z"/>
<path d="M3453 625 c-35 -15 -58 -49 -48 -73 5 -13 9 -11 25 13 22 34 50 52
50 33 0 -7 -18 -57 -39 -111 l-39 -97 25 -20 c77 -60 213 37 213 151 0 90 -96
144 -187 104z m138 -23 c17 -15 22 -28 22 -65 -1 -56 -27 -104 -73 -134 -37
-25 -100 -31 -100 -10 0 7 20 55 45 106 43 88 44 94 28 107 -16 12 -14 13 18
14 21 0 46 -8 60 -18z"/>
<path d="M3902 552 c-52 -113 -70 -181 -51 -193 11 -6 16 5 25 54 7 34 23 89
35 122 22 54 24 57 27 30 9 -88 32 -199 44 -206 25 -16 38 -9 38 20 0 42 46
184 70 214 18 23 18 26 3 31 -9 4 -20 1 -25 -6 -9 -15 -45 -130 -54 -177 -12
-59 -26 -16 -28 83 -1 87 -3 96 -22 105 -20 9 -25 3 -62 -77z"/>
<path d="M4321 623 c-42 -22 -57 -44 -47 -69 7 -17 9 -16 22 8 14 27 54 57 54
40 0 -4 -18 -53 -39 -108 l-40 -99 25 -22 c56 -51 153 -10 195 82 44 95 6 168
-93 181 -31 4 -53 0 -77 -13z m139 -23 c26 -26 27 -93 1 -140 -24 -46 -75 -80
-119 -80 -32 0 -34 1 -27 28 3 15 24 64 45 108 38 81 38 82 16 92 -18 9 -15
11 22 11 29 1 48 -5 62 -19z"/>
<path d="M4620 625 c0 -9 6 -18 14 -21 19 -7 4 -63 -24 -86 -11 -9 -15 -18
-10 -20 7 -2 3 -25 -11 -61 -29 -76 -21 -84 79 -79 62 3 73 6 70 20 -4 18 -38
22 -97 9 -32 -7 -33 -6 -26 20 3 15 13 42 20 60 13 30 18 33 55 33 47 0 52 23
7 28 -31 4 -33 12 -12 52 14 27 20 30 66 30 45 0 50 2 39 15 -18 22 -170 22
-170 0z"/>
<path d="M5061 622 c-26 -21 -116 -172 -132 -219 -9 -29 -9 -37 2 -44 10 -6
16 -1 20 19 13 61 102 222 116 209 2 -3 -3 -39 -11 -81 -21 -99 -21 -142 1
-150 17 -7 33 9 33 34 0 20 63 148 89 180 25 32 37 20 22 -22 -6 -18 -14 -66
-18 -106 -5 -58 -3 -76 8 -83 25 -16 29 -10 29 44 0 45 16 138 35 203 5 16 1
23 -17 28 -28 7 -49 -15 -114 -124 -49 -81 -52 -71 -14 52 l17 56 -23 11 c-18
8 -27 6 -43 -7z"/>
<path d="M5409 561 c-43 -45 -74 -81 -69 -81 6 0 -2 -25 -17 -55 -23 -46 -25
-57 -13 -65 11 -6 18 5 34 53 21 62 21 62 64 65 l42 3 0 -60 c0 -34 2 -61 4
-61 2 0 11 -2 19 -5 11 -5 15 11 20 82 3 48 13 108 21 132 20 54 20 48 -5 62
-19 10 -29 3 -100 -70z m59 -9 c-7 -30 -16 -42 -28 -42 -10 0 -25 -3 -34 -6
-9 -3 -16 -1 -16 5 0 12 78 96 85 90 2 -3 -1 -24 -7 -47z"/>
<path d="M5655 626 c-23 -7 -41 -19 -43 -29 -4 -19 19 -23 49 -7 28 15 25 4
-25 -110 -37 -84 -42 -101 -30 -111 18 -15 16 -17 43 58 27 74 43 74 67 0 19
-61 34 -80 56 -72 13 5 10 15 -18 62 -33 55 -35 73 -9 73 7 0 27 12 44 26 30
25 40 64 23 90 -22 34 -85 42 -157 20z m153 -48 c2 -19 -3 -31 -21 -43 -26
-16 -97 -32 -97 -22 0 4 10 27 22 52 21 43 25 46 58 43 30 -3 35 -7 38 -30z"/>
<path d="M5927 633 c-10 -3 -16 -10 -13 -16 3 -7 17 -41 31 -76 l27 -64 -21
-55 c-12 -30 -20 -56 -19 -57 2 -1 12 -5 23 -9 18 -5 22 1 32 55 9 48 22 75
63 129 53 68 59 82 42 88 -5 1 -16 -14 -26 -35 -9 -21 -28 -51 -42 -68 -29
-36 -37 -29 -53 56 -7 33 -15 58 -19 58 -4 -1 -15 -3 -25 -6z"/>
<path d="M3754 574 c-35 -80 -55 -173 -43 -196 13 -23 29 -14 29 17 0 33 39
155 61 191 17 28 18 32 3 38 -24 9 -23 10 -50 -50z"/>
<path d="M820 400 l0 -210 60 0 60 0 0 210 0 210 -60 0 -60 0 0 -210z"/>
<path d="M1210 400 l0 -210 55 0 55 0 0 210 0 210 -55 0 -55 0 0 -210z"/>
<path d="M1010 350 l0 -210 55 0 55 0 0 210 0 210 -55 0 -55 0 0 -210z"/>
</g>
</svg>
